<?xml version="1.0" encoding="utf-8"?>
<!-- Generator: Adobe Illustrator 19.2.0, SVG Export Plug-In . SVG Version: 6.00 Build 0)  -->
<svg version="1.1" id="Layer_1" xmlns="http://www.w3.org/2000/svg" xmlns:xlink="http://www.w3.org/1999/xlink" x="0px" y="0px"
	 viewBox="0 0 46.2 124.6" style="enable-background:new 0 0 46.2 124.6;" xml:space="preserve">
<style type="text/css">
	.st0{fill:#FFFFFF;}
</style>
<g>
	<path class="st0" d="M18.4,35.9c-2.2,0.8-4,1.5-5.8,2.2c-0.9,0.4-1.6,0.4-2.3-0.2C9.6,37.4,8.8,37,8,36.6c-0.3-0.1-0.7-0.1-0.6-0.6
		c0-0.4,0.4-0.4,0.7-0.5c2.8-1.1,5.7-1.6,8.6-1.9c1.6-0.2,1.7-0.3,0.9-1.7c-0.1-0.2-0.2-0.3-0.3-0.5c-0.3-0.6-0.6-1.3-0.1-1.9
		c0.6-0.7,1.3-0.3,2,0.1c1.2,0.7,2.2,1.6,3.2,2.6c0.6,0.6,1.3,1,2.1,1.2c12.3,3,19,11.2,21.1,23.4c1,6,0.9,12.1-0.2,18.1
		c-0.2,1-0.6,1.3-1.6,1.3c-1.2-0.1-2.5,0-3.7,0c-0.8,0-1.4,0.1-1.5,1.1c-0.1,0.8-0.7,1-1.4,1c-9,0-17.9,0-26.9,0
		c-1.1,0-1.4-0.5-1.3-1.5c0.2-3,1.2-5.6,3.3-7.7c2.7-2.6,5.1-5.4,6.9-8.6c1.3-2.3,2.3-4.7,2.6-7.4c0-0.3,0.1-0.7-0.1-0.9
		c-0.3-0.3-0.6,0.1-0.9,0.3c-2.8,1.7-5.7,2.3-8.9,0.6c-1.5-0.8-2.7,0.1-2.8,2c-0.2,2-1.1,3.3-3,4.1c-0.9,0.4-1.8,0.3-2.6-0.3
		c-0.9-0.7-1.7-1.5-2.3-2.4c-1.2-1.7-1-3.1,0.6-4.3c2.1-1.5,3.6-3.3,4.8-5.5c0.4-0.8,0.8-1.6,0.8-2.5c0-1.1,0.8-1.6,1.6-2.2
		c2.6-1.9,5.4-3.5,8.2-5.1C17.4,36.9,18,36.7,18.4,35.9z M30.1,38.7c2.1,2,4,4.2,5.4,6.7c1.5,2.5,2.6,5.2,3.3,8s1.1,5.7,1.3,8.6
		c0.2,2.8-0.2,5.7-0.4,8.8C43.8,56.9,39.9,45.1,30.1,38.7z"/>
	<path class="st0" d="M23.1,95.7c-5.3,0-10.5,0-15.8,0c-1.4,0-1.8-0.4-1.7-1.8c0.1-1.1,0-2.2,0-3.3c0.1-3,2.2-5.2,5.2-5.2
		c8.2,0,16.4,0,24.6,0c2.6,0,4.7,1.8,5.1,4.4c0.3,1.5,0.1,2.9,0.2,4.4c0,1.1-0.4,1.5-1.5,1.5c-4.1,0-8.3,0-12.4,0
		C25.6,95.7,24.3,95.7,23.1,95.7z"/>
	<path class="st0" d="M23.1,101.5c-5.9,0-11.9,0-17.8,0c-1.8,0-1.8,0-1.8-1.8c0-2.9-0.2-2.6,2.6-2.6c11.6,0,23.2,0,34.8,0
		c0.7,0,1.6-0.4,1.9,0.5c0.3,1.1,0.4,2.4-0.2,3.5c-0.3,0.5-1,0.3-1.5,0.3C35.1,101.6,29.1,101.5,23.1,101.5z"/>
	<path class="st0" d="M23.1,83.7c-3.5,0-6.9-0.1-10.4,0c-1.6,0-1.6-0.8-1.6-1.9c0-1.2,0.3-1.7,1.6-1.7c6.9,0.1,13.9,0,20.8,0
		c1.6,0,1.6,0.1,1.6,1.8c0,1.7-0.1,1.8-1.7,1.8C30,83.7,26.5,83.7,23.1,83.7z"/>
</g>
</svg>
