<?xml version="1.0" encoding="utf-8"?>
<!-- Generator: Adobe Illustrator 19.2.0, SVG Export Plug-In . SVG Version: 6.00 Build 0)  -->
<svg version="1.1" id="Layer_1" xmlns="http://www.w3.org/2000/svg" xmlns:xlink="http://www.w3.org/1999/xlink" x="0px" y="0px"
	 viewBox="0 0 46.2 124.6" style="enable-background:new 0 0 46.2 124.6;" xml:space="preserve">
<style type="text/css">
	.st0{fill:#FFFFFF;}
</style>
<g>
	<path class="st0" d="M24.1,98.2c-3.4,0-6.7,0-10.1,0c-1.1,0-1.4-0.4-1.2-1.4c1.7-9.4,3.3-18.9,4.9-28.4c0.2-1.1,0.6-1.4,1.6-1.4
		c3.2,0,6.5,0,9.7,0c1,0,1.4,0.3,1.6,1.3c1.6,9.4,3.2,18.7,4.8,28.1c0.3,1.7,0.3,1.8-1.6,1.8C30.7,98.2,27.4,98.2,24.1,98.2z"/>
	<path class="st0" d="M24.1,117.7c-6,0-12,0-18.1,0c-1.3,0-1.9-0.4-1.8-1.7c0.1-1.6-0.2-3.3,0.2-4.9c0.6-3,3-4.9,6-4.9
		c9.2,0,18.3,0,27.5,0c3.4,0,5.9,2.6,6,6c0,1.3-0.1,2.7,0,4c0.1,1.2-0.4,1.6-1.6,1.6C36.3,117.7,30.2,117.7,24.1,117.7z"/>
	<path class="st0" d="M24.2,52.6c-2.4,0-4.8,0-7.2,0c-0.9,0-1.4-0.3-1.7-1.1c-1.7-4.5-3.4-8.9-5-13.4c-0.9-2.5-0.7-3.2,1.9-3.1
		c3.7,0,7.3,0,11,0c4.7,0,9.4,0,14.1,0c1.7,0,1.7,0.1,1.1,1.7c-1.8,4.9-3.5,9.7-5.2,14.6c-0.4,1-0.9,1.4-1.9,1.3
		C28.9,52.5,26.5,52.6,24.2,52.6z"/>
	<path class="st0" d="M22.4,5.4c-1.1-2-1-3.1,0-4.1c0.9-0.8,2.3-0.9,3.3-0.2c1.2,0.8,1.4,2,0.5,4.2c0.5,0.3,1,0.1,1.5,0.2
		c1.5,0,1.6,0.1,1.2,1.5c-0.4,1.5-0.8,2.9-1.2,4.4c-0.2,0.8-0.1,1.1,0.8,0.8c1.6-0.5,3.2-0.8,4.7-1.3c0.8-0.2,1.2,0,1.2,0.9
		c0,2.6,0,5.2,0,7.8c0,0.9-0.3,1.2-1.2,1c-1.6-0.5-3.3-0.6-4.9-1.3c-0.9-0.4-0.9,0.1-0.7,0.7c0.4,1.6,1,3.1,1.4,4.7
		c0.2,1,0.1,1.4-1,1.4c-2.6-0.1-5.2,0-7.8,0c-0.9,0-1.2-0.2-0.9-1.2c0.5-1.5,0.9-3,1.3-4.5c0.2-0.9,0-1.4-1.1-1
		c-1.4,0.4-2.9,0.8-4.4,1.2c-0.9,0.3-1.3,0-1.3-1c0-2.6,0-5.2,0-7.8c0-0.9,0.3-1.1,1.2-0.9c1.6,0.5,3.3,0.8,4.9,1.3
		c0.9,0.3,1,0,0.8-0.8c-0.4-1.5-0.8-3.1-1.3-4.6c-0.3-0.9-0.1-1.4,1-1.3C21,5.4,21.6,5.4,22.4,5.4z"/>
	<path class="st0" d="M24.1,124.6c-6.9,0-13.7,0-20.6,0c-1.1,0-1.7-0.2-1.6-1.4c0-0.6-0.2-0.9-0.8-1c-0.5-0.1-0.7-0.4-0.7-0.8
		c0-0.4,0.2-0.7,0.6-0.9c1.2-0.8,2.5-0.9,3.9-0.9c13.1,0,26.2,0,39.3,0c2.2,0,2.2,0,2.2,2.2c0,3,0.4,2.8-2.9,2.8
		C37.1,124.6,30.6,124.6,24.1,124.6z"/>
	<path class="st0" d="M24.1,104.1c-4.6,0-9.1,0-13.7,0c-1.8,0-2.6-1.1-2.1-2.9c0.3-1.1,1.1-1.2,2.1-1.2c4.7,0,9.5,0,14.2,0
		c4.4,0,8.8,0,13.1,0c2,0,2.8,1.2,2.1,3.2c-0.3,0.9-1.1,0.9-1.9,0.9C33.4,104.1,28.8,104.1,24.1,104.1z"/>
	<path class="st0" d="M24.1,65.1c-3,0-6,0-9,0c-1.5,0-2-0.5-2-2c0-1.7,0.5-2.3,2-2.3c6.1,0,12.3,0,18.4,0c1.4,0,2,0.8,2,2.3
		c0,1.5-0.6,2-2,2C30.3,65.1,27.2,65.1,24.1,65.1z"/>
	<path class="st0" d="M24.1,33.2c-2.5,0-4.9,0-7.4,0c-1.1,0-1.7-0.7-1.4-1.8c0.1-0.4,0.2-0.8,0.1-1.2c-0.2-2.4,0.4-1.9,2.1-1.9
		c4.6,0,9.3,0,13.9,0c1.2,0,1.6,0.4,1.6,1.6c-0.1,3.9,0.3,3.3-3.2,3.3C27.9,33.2,26,33.2,24.1,33.2C24.1,33.2,24.1,33.2,24.1,33.2z"
		/>
	<path class="st0" d="M24.3,58.9c-2.3,0-4.7,0-7,0c-1.7,0-2.1-0.5-2.1-2.3c0-1.6,0.4-2,2.1-2c4.6,0,9.3,0,13.9,0
		c1.7,0,2.2,0.5,2.2,2.1c0,1.7-0.5,2.2-2.2,2.3C28.9,58.9,26.6,58.9,24.3,58.9z"/>
</g>
<g>
	<path class="st0" d="M79.5,92.3c-3.4,0-6.8,0-10.3,0c-1.2,0-1.6-0.3-1.4-1.6c1.2-6.7,2.3-13.4,3.4-20.1c0.1-0.8,0.2-1.5,0.3-2.3
		c0.1-0.9,0.7-1.2,1.4-1.1c4.3,0.2,8.6,0.1,12.8,0.1c1.2,0,1.7,0.3,1.9,1.5c1.2,7.3,2.4,14.7,3.7,22c0.2,1.1-0.2,1.5-1.3,1.5
		C86.5,92.3,83,92.3,79.5,92.3z"/>
	<path class="st0" d="M79.6,112.3c-6.2,0-12.5,0-18.7,0c-1.4,0-1.9-0.4-1.8-1.8c0.1-1.6-0.1-3.3,0.2-4.9c0.5-3.1,3-5.2,6.1-5.2
		c9.3,0,18.6,0,27.9,0c4.1,0,6.7,2.5,6.8,6.6c0.1,1.3,0,2.6,0,3.8c0.1,1.1-0.4,1.5-1.5,1.5C92.2,112.3,85.9,112.3,79.6,112.3z"/>
	<path class="st0" d="M85.1,52.4c-4.2,0-8.1,0-11.9,0c-1.2,0-2-0.4-2.6-1.4c-1.9-3-2.3-6.2-1.2-9.6c1.3-4,3.7-7.2,6.3-10.3
		c0.2-0.2,0.4-0.5,0.7-0.7c0.5-0.6,1.2-1.1,1.4-1.8c0.2-0.8-0.9-1-1.3-1.5c-1.2-1.7-1-4.1,0.5-5.4c1.7-1.4,4.1-1.3,5.5,0.4
		c1.4,1.6,1.4,4.3-0.3,5.5c-1.2,0.9-0.8,1.4,0,2.1c1,0.8,1.3,1.8,1.1,3.1c-0.5,3.1-0.8,6.3-1.2,9.5c0,0.3,0,0.6,0,1
		c0,0.6,0.2,1,0.8,1.1c0.6,0,0.9-0.4,0.9-1c0.3-2.2,0.6-4.4,0.8-6.6c0.1-0.5,0.1-1,0.2-1.5c0.1-0.5-0.2-1.3,0.5-1.4
		c0.5-0.1,0.7,0.6,1,1c2.1,3.2,4,6.5,3.9,10.5c0,1.6,0,3.4-0.8,4.6C88.5,51.3,87.3,53.3,85.1,52.4z"/>
	<path class="st0" d="M79.5,114.2c7,0,14,0,21.1,0c1.8,0,1.9,0.1,1.9,1.9c0,3.6,0.3,3.3-3.2,3.3c-13.5,0-27.1,0-40.6,0
		c-2.1,0-2.1,0-2.1-2.1c0-3.3-0.2-3,3-3.1C66.2,114.2,72.9,114.2,79.5,114.2z"/>
	<path class="st0" d="M79.6,98.4c-4.7,0-9.4,0-14.1,0c-1.7,0-2.3-0.6-2.4-2.1c0-1.5,0.6-2.1,2.3-2.1c9.4,0,18.8,0,28.2,0
		c1.7,0,2.3,0.6,2.3,2.1c0,1.5-0.5,2.1-2,2.1C89.1,98.4,84.4,98.4,79.6,98.4z"/>
	<path class="st0" d="M79.5,65.2c-3.1,0-6.3,0-9.4,0c-1.4,0-2-0.7-2-2c0-1.7,0.5-2.4,2-2.4c6.3,0,12.7,0,19,0c1.5,0,2.1,0.8,2,2.4
		c0,1.4-0.6,2-2.2,2C85.8,65.2,82.6,65.2,79.5,65.2z"/>
	<path class="st0" d="M80.9,58.9c-2.4,0.2-5-0.3-7.5,0.4c-1,0.3-2.5-1.3-2.6-2.5c-0.1-1.6,0.6-2.3,2.1-2.3c2.4,0,4.8,0,7.3,0
		c0.6,0,1.2,0.2,1.5-0.5c0-0.1,0.1-0.1,0.2-0.2c1.8,1.6,3.9,0.4,5.8,0.7c1.4,0.2,2,0.5,2.1,1.9c0.1,1.7-0.4,2.5-1.9,2.6
		C85.6,58.9,83.3,58.9,80.9,58.9z"/>
</g>
<path d="M30.7,190.6c-2.9,0-5.8,0-8.8,0c-0.9,0-1.2-0.3-1.1-1.3c0.4-5.7,0.7-11.3,1-17c0.1-1,0.4-1.3,1.4-1.3c5,0,10.1,0,15.1,0
	c0.9,0,1.4,0.2,1.4,1.2c0.2,3.1,0.4,6.1,0.6,9.2c0.2,2.5,0.3,5.1,0.5,7.6c0.1,1.1-0.3,1.5-1.4,1.5C36.6,190.6,33.7,190.6,30.7,190.6
	z"/>
<path d="M88.9,170c-2.1,0-4.2,0-6.3,0c-0.8,0-1.3-0.2-1.7-0.9c-2.2-3.1-2.7-6.5-1.2-10c1.5-3.5,4.2-5.6,8-6.1
	c4.3-0.5,7.7,1.1,10,4.8c2.2,3.7,2,7.4-0.3,11.1c-0.5,0.8-1.1,1.1-2.1,1.1C93.1,170,91,170,88.9,170C88.9,170,88.9,170,88.9,170z"/>
<path d="M89.1,206c-4.8,0-9.6,0-14.4,0c-1.1,0-1.6-0.3-1.5-1.5c0.1-1,0-2,0-3c0.1-2.6,2.1-4.7,4.7-4.7c7.4,0,14.7,0,22.1,0
	c2.6,0,4.6,2,4.7,4.8c0.1,1.2,0,2.5,0.1,3.7c0,0.7-0.4,0.7-0.8,0.7c-1.1,0-2.2,0-3.4,0C96.8,206,93,206,89.1,206
	C89.1,206,89.1,206,89.1,206z"/>
<path d="M30.8,206.2c-4.7,0-9.4,0-14,0c-1.6,0-1.6,0-1.6-1.6c0-1,0-1.9,0-2.9c0-2.7,2-4.7,4.7-4.7c7.4,0,14.7,0,22.1,0
	c2.5,0,4.4,1.8,4.7,4.5c0.1,1.2,0,2.5,0.1,3.7c0,0.9-0.7,0.9-1.3,0.9c-4.6,0-9.2,0-13.8,0C31.3,206.2,31.1,206.2,30.8,206.2z"/>
<path d="M30.8,164.7c-3.3,0-6.6-0.1-9.8,0c-1.2,0-1.6-0.5-1.7-1.6c-0.2-2.8-0.4-5.5-0.5-8.2c-0.1-1-0.1-2-0.2-3
	c-0.1-0.8,0.2-1.1,1.1-1.2c3.3-0.2,3.3-0.2,3.7,3c0.1,0.9,0.3,1.9,0.3,2.9c0,0.9,0.4,1.1,1.2,1.1c1.2-0.1,2.6,0.5,3.4-0.2
	c0.8-0.7,0.1-2.1,0.2-3.2c0-0.6,0-1.3,0-1.9c-0.1-1.6-0.1-1.6,1.5-1.6c0.5,0,1,0,1.4,0c2.2,0,2.2,0,2.1,2.3
	c-0.1,1.2-0.1,2.4-0.2,3.6c-0.1,0.8,0.3,1.1,1.1,1.1c0.6,0,1.2,0,1.8,0c1.9,0,1.9,0,2.1-2c0.1-1.3,0.3-2.6,0.4-3.9
	c0.1-0.7,0.4-1,1.1-1c0.8,0,1.7,0,2.5,0c0.6,0,1,0.2,0.9,0.9c-0.3,4-0.5,8-0.8,12.1c-0.1,0.9-0.7,1-1.3,1
	C37.6,164.7,34.2,164.7,30.8,164.7z"/>
<path d="M88.9,194.9c-2.8,0-5.6,0-8.4,0c-1.5,0-1.6-0.1-1.3-1.5c0.8-3.8,1.6-7.6,2.4-11.4c0.2-1,0.6-1.4,1.7-1.4
	c3.8,0.1,7.5,0,11.3,0c1,0,1.4,0.3,1.6,1.3c0.8,3.9,1.6,7.7,2.5,11.6c0.2,1-0.1,1.3-1.1,1.3C94.7,194.9,91.8,194.9,88.9,194.9z"/>
<path d="M88.9,211.3c-5.3,0-10.6,0-16,0c-1.6,0-1.6,0-1.6-1.6c0-2.6-0.2-2.3,2.3-2.3c9.1,0,18.2,0,27.3,0c1.5,0,2.9,0,4.4,0
	c0.8,0,1.2,0.3,1.3,1.2c0.1,2.8,0.1,2.8-2.6,2.8C99,211.3,93.9,211.3,88.9,211.3z"/>
<path d="M30.9,211.3c-5.4,0-10.7,0-16.1,0c-1.6,0-1.6,0-1.6-1.6c0-2.6-0.2-2.3,2.3-2.3c10.4,0,20.9,0,31.3,0c0.6,0,1.4-0.3,1.6,0.4
	c0.3,1,0.4,2.2-0.1,3.2c-0.2,0.5-0.9,0.3-1.3,0.3C41.6,211.3,36.3,211.3,30.9,211.3z"/>
<path d="M88.9,179.1c-2.5,0-5,0-7.5,0c-0.9,0-1.2-0.3-1-1.2c0.5-1.7,1-3.4,1.4-5.1c0.2-0.7,0.6-1,1.4-1c3.8,0,7.7,0,11.5,0
	c0.7,0,1.1,0.3,1.3,1c0.5,1.7,1,3.5,1.5,5.2c0.3,0.9-0.1,1.1-0.9,1.1C94,179.1,91.5,179.1,88.9,179.1z"/>
<path d="M30.8,195.5c-3.6,0-7.1,0-10.7,0c-1.5,0-1.8-0.3-1.9-1.6c0-1.3,0.4-1.8,1.8-1.8c7.2,0,14.4,0,21.6,0c1.4,0,1.9,0.6,1.8,1.8
	c0,1.1-0.5,1.6-1.9,1.6C38,195.5,34.4,195.5,30.8,195.5z"/>
<g>
	<path d="M148.7,52.4c-1.9,0.7-3.6,1.3-5.2,2c-0.8,0.3-1.4,0.3-2.1-0.2c-0.6-0.5-1.4-0.8-2.1-1.2c-0.2-0.1-0.6-0.1-0.6-0.5
		c0-0.3,0.4-0.4,0.6-0.5c2.5-1,5.1-1.4,7.7-1.7c1.5-0.2,1.6-0.3,0.8-1.6c-0.1-0.1-0.2-0.3-0.2-0.4c-0.3-0.5-0.6-1.1-0.1-1.7
		c0.6-0.6,1.2-0.3,1.8,0.1c1.1,0.6,2,1.5,2.8,2.4c0.5,0.6,1.1,0.9,1.9,1.1c11,2.7,17,10,18.9,21c0.9,5.4,0.8,10.8-0.1,16.2
		c-0.2,0.9-0.6,1.2-1.4,1.2c-1.1,0-2.2,0-3.4,0c-0.7,0-1.3,0.1-1.4,0.9c-0.1,0.7-0.6,0.9-1.3,0.9c-8,0-16.1,0-24.1,0
		c-1,0-1.3-0.4-1.2-1.3c0.1-2.7,1.1-5,3-6.9c2.4-2.3,4.6-4.8,6.2-7.7c1.2-2.1,2.1-4.2,2.3-6.6c0-0.3,0-0.7-0.1-0.8
		c-0.3-0.3-0.6,0.1-0.8,0.3c-2.6,1.6-5.1,2-7.9,0.6c-1.3-0.7-2.4,0.1-2.6,1.8c-0.2,1.8-1,3-2.6,3.7c-0.8,0.4-1.6,0.3-2.4-0.2
		c-0.8-0.6-1.5-1.3-2.1-2.1c-1.1-1.5-0.9-2.8,0.6-3.8c1.8-1.3,3.2-3,4.3-4.9c0.4-0.7,0.7-1.4,0.7-2.2c0-1,0.7-1.5,1.4-2
		c2.3-1.7,4.8-3.1,7.3-4.5C147.8,53.3,148.2,53.2,148.7,52.4z M159.1,54.9c1.9,1.8,3.6,3.7,4.9,6c1.3,2.2,2.3,4.6,3,7.2
		c0.7,2.5,0.9,5.1,1.2,7.7c0.2,2.5-0.2,5.1-0.3,7.9C171.5,71.2,168,60.7,159.1,54.9z"/>
	<path d="M152.8,106c-4.7,0-9.4,0-14.1,0c-1.2,0-1.6-0.4-1.5-1.6c0.1-1,0-2,0-3c0.1-2.7,2-4.6,4.7-4.6c7.4,0,14.7,0,22.1,0
		c2.4,0,4.2,1.6,4.6,3.9c0.3,1.3,0.1,2.6,0.2,3.9c0,1-0.4,1.3-1.4,1.3c-3.7,0-7.4,0-11.2,0C155.1,106,153.9,106,152.8,106z"/>
	<path d="M152.9,111.3c-5.3,0-10.6,0-15.9,0c-1.6,0-1.7,0-1.6-1.6c0-2.6-0.2-2.3,2.3-2.3c10.4,0,20.8,0,31.2,0
		c0.6,0,1.5-0.4,1.7,0.5c0.3,1,0.4,2.2-0.2,3.1c-0.2,0.5-0.9,0.3-1.3,0.3C163.6,111.3,158.2,111.3,152.9,111.3z"/>
	<path d="M152.8,95.3c-3.1,0-6.2-0.1-9.3,0c-1.4,0-1.4-0.7-1.4-1.7c0-1.1,0.3-1.6,1.5-1.6c6.2,0,12.4,0,18.7,0
		c1.4,0,1.5,0.1,1.5,1.6c0,1.5-0.1,1.6-1.5,1.6C159,95.3,155.9,95.3,152.8,95.3z"/>
</g>
<path d="M30.9,166.4c2.7,0,5.4,0,8,0c1.6,0,2,0.3,2,1.7c0,1.3-0.4,1.7-2,1.7c-5.4,0-10.9,0-16.3,0c-1.4,0-2-0.5-2-1.7
	c0-1.3,0.5-1.7,2-1.7C25.4,166.3,28.2,166.4,30.9,166.4z"/>
</svg>
