<?xml version="1.0" encoding="utf-8"?>
<!-- Generator: Adobe Illustrator 19.2.0, SVG Export Plug-In . SVG Version: 6.00 Build 0)  -->
<svg version="1.1" id="Layer_1" xmlns="http://www.w3.org/2000/svg" xmlns:xlink="http://www.w3.org/1999/xlink" x="0px" y="0px"
	 viewBox="0 0 46.2 124.6" style="enable-background:new 0 0 46.2 124.6;" xml:space="preserve">
<style type="text/css">
	.st0{fill:#FFFFFF;}
</style>
<g>
	<path class="st0" d="M23,75.8c-3.8,0-7.6,0-11.4,0c-1.2,0-1.6-0.4-1.5-1.6c0.5-7.3,0.9-14.7,1.3-22c0.1-1.3,0.5-1.7,1.8-1.7
		c6.5,0,13.1,0,19.6,0c1.2,0,1.8,0.3,1.9,1.6c0.2,4,0.5,8,0.8,11.9c0.2,3.3,0.4,6.6,0.6,9.9c0.1,1.4-0.4,1.9-1.8,1.9
		C30.5,75.7,26.8,75.8,23,75.8z"/>
	<path class="st0" d="M23.1,96C17,96,11,96,4.9,96c-2.1,0-2.1,0-2.1-2.1c0-1.2,0-2.5,0-3.7c0.1-3.5,2.6-6.1,6.1-6.1
		c9.5,0,19.1,0,28.6,0c3.3,0,5.7,2.3,6.1,5.9c0.2,1.6,0.1,3.2,0.1,4.8c0,1.2-0.8,1.2-1.7,1.2c-6,0-11.9,0-17.9,0
		C23.7,96,23.4,96,23.1,96z"/>
	<path class="st0" d="M23.1,42.1c-4.3,0-8.5-0.1-12.8,0c-1.6,0-2.1-0.6-2.2-2C7.9,36.6,7.6,33,7.4,29.4c-0.1-1.3-0.2-2.6-0.3-3.9
		C7,24.5,7.4,24,8.5,24c4.3-0.3,4.3-0.3,4.8,3.9c0.2,1.2,0.3,2.5,0.4,3.7c0,1.1,0.5,1.5,1.5,1.4c1.5-0.1,3.4,0.6,4.4-0.3
		c1-0.9,0.1-2.7,0.2-4.2c0.1-0.8,0-1.7,0-2.5c-0.1-2-0.1-2,2-2.1c0.6,0,1.2,0,1.9,0c2.9,0,2.9,0,2.8,3c-0.1,1.6-0.2,3.1-0.3,4.7
		c-0.1,1,0.4,1.4,1.4,1.4c0.8,0,1.6,0,2.3,0c2.5,0,2.5,0,2.7-2.6c0.1-1.7,0.4-3.4,0.5-5.1c0.1-0.9,0.5-1.3,1.4-1.3
		c1.1,0,2.2,0,3.3,0c0.8,0,1.3,0.3,1.2,1.2c-0.4,5.2-0.7,10.5-1,15.7c-0.1,1.2-0.8,1.2-1.7,1.2C31.9,42.1,27.5,42.1,23.1,42.1z"/>
	<path class="st0" d="M23.2,102.5c-7,0-13.9,0-20.9,0c-2.1,0-2.1,0-2.1-2.1c0-3.4-0.2-3,3-3c13.5,0,27.1,0,40.6,0
		c0.7,0,1.8-0.4,2.1,0.6c0.4,1.3,0.5,2.8-0.1,4.1c-0.3,0.6-1.1,0.4-1.7,0.4C37.1,102.6,30.2,102.5,23.2,102.5z"/>
	<path class="st0" d="M23,82c-4.6,0-9.2,0-13.9,0c-1.9,0-2.4-0.4-2.4-2c0-1.7,0.5-2.3,2.4-2.3c9.3,0,18.7,0,28,0
		c1.8,0,2.4,0.7,2.4,2.3c0,1.5-0.7,2-2.5,2C32.4,82,27.7,82,23,82z"/>
	<path class="st0" d="M23.1,44.2c3.5,0,7,0,10.4,0c2.1,0,2.6,0.5,2.6,2.2c0,1.8-0.5,2.2-2.6,2.2c-7.1,0-14.1,0-21.2,0
		c-1.9,0-2.5-0.6-2.5-2.2s0.7-2.2,2.6-2.2C16.1,44.2,19.6,44.2,23.1,44.2z"/>
</g>
</svg>
