<?xml version="1.0" encoding="utf-8"?>
<!-- Generator: Adobe Illustrator 19.2.0, SVG Export Plug-In . SVG Version: 6.00 Build 0)  -->
<svg version="1.1" id="Layer_1" xmlns="http://www.w3.org/2000/svg" xmlns:xlink="http://www.w3.org/1999/xlink" x="0px" y="0px"
	 viewBox="0 0 46.2 124.6" style="enable-background:new 0 0 46.2 124.6;" xml:space="preserve">
<style type="text/css">
	.st0{fill:#FFFFFF;}
</style>
<g>
	<path class="st0" d="M22.9,84.4c-3.4,0-6.8,0-10.3,0c-1.2,0-1.6-0.3-1.4-1.6c1.2-6.7,2.3-13.4,3.4-20.1c0.1-0.8,0.2-1.5,0.3-2.3
		c0.1-0.9,0.7-1.2,1.4-1.1c4.3,0.2,8.6,0.1,12.8,0.1c1.2,0,1.7,0.3,1.9,1.5c1.2,7.3,2.4,14.7,3.7,22c0.2,1.1-0.2,1.5-1.3,1.5
		C30,84.4,26.4,84.4,22.9,84.4z"/>
	<path class="st0" d="M23,104.5c-6.2,0-12.5,0-18.7,0c-1.4,0-1.9-0.4-1.8-1.8c0.1-1.6-0.1-3.3,0.2-4.9c0.5-3.1,3-5.2,6.1-5.2
		c9.3,0,18.6,0,27.9,0c4.1,0,6.7,2.5,6.8,6.6c0.1,1.3,0,2.6,0,3.8c0.1,1.1-0.4,1.5-1.5,1.5C35.7,104.5,29.3,104.5,23,104.5z"/>
	<path class="st0" d="M28.6,44.5c-4.2,0-8.1,0-11.9,0c-1.2,0-2-0.4-2.6-1.4c-1.9-3-2.3-6.2-1.2-9.6c1.3-4,3.7-7.2,6.3-10.3
		c0.2-0.2,0.4-0.5,0.7-0.7c0.5-0.6,1.2-1.1,1.4-1.8c0.2-0.8-0.9-1-1.3-1.5c-1.2-1.7-1-4.1,0.5-5.4c1.7-1.4,4.1-1.3,5.5,0.4
		c1.4,1.6,1.4,4.3-0.3,5.5c-1.2,0.9-0.8,1.4,0,2.1c1,0.8,1.3,1.8,1.1,3.1c-0.5,3.1-0.8,6.3-1.2,9.5c0,0.3,0,0.6,0,1
		c0,0.6,0.2,1,0.8,1.1c0.6,0,0.9-0.4,0.9-1c0.3-2.2,0.6-4.4,0.8-6.6c0.1-0.5,0.1-1,0.2-1.5s-0.2-1.3,0.5-1.4c0.5-0.1,0.7,0.6,1,1
		c2.1,3.2,4,6.5,3.9,10.5c0,1.6,0,3.4-0.8,4.6C32,43.4,30.8,45.5,28.6,44.5z"/>
	<path class="st0" d="M23,106.4c7,0,14,0,21.1,0c1.8,0,1.9,0.1,1.9,1.9c0,3.6,0.3,3.3-3.2,3.3c-13.5,0-27.1,0-40.6,0
		c-2.1,0-2.1,0-2.1-2.1c0-3.3-0.2-3,3-3.1C9.7,106.4,16.3,106.4,23,106.4z"/>
	<path class="st0" d="M23,90.5c-4.7,0-9.4,0-14.1,0c-1.7,0-2.3-0.6-2.4-2.1c0-1.5,0.6-2.1,2.3-2.1c9.4,0,18.8,0,28.2,0
		c1.7,0,2.3,0.6,2.3,2.1s-0.5,2.1-2,2.1C32.6,90.5,27.8,90.5,23,90.5z"/>
	<path class="st0" d="M22.9,57.4c-3.1,0-6.3,0-9.4,0c-1.4,0-2-0.7-2-2c0-1.7,0.5-2.4,2-2.4c6.3,0,12.7,0,19,0c1.5,0,2.1,0.8,2,2.4
		c0,1.4-0.6,2-2.2,2C29.2,57.4,26.1,57.4,22.9,57.4z"/>
	<path class="st0" d="M24.4,51c-2.4,0.2-5-0.3-7.5,0.4c-1,0.3-2.5-1.3-2.6-2.5c-0.1-1.6,0.6-2.3,2.1-2.3c2.4,0,4.8,0,7.3,0
		c0.6,0,1.2,0.2,1.5-0.5c0-0.1,0.1-0.1,0.2-0.2c1.8,1.6,3.9,0.4,5.8,0.7c1.4,0.2,2,0.5,2.1,1.9c0.1,1.7-0.4,2.5-1.9,2.6
		C29,51.1,26.8,51,24.4,51z"/>
</g>
</svg>
